<svg xmlns="http://www.w3.org/2000/svg" xmlns:xlink="http://www.w3.org/1999/xlink" preserveAspectRatio="xMidYMid meet" version="1.0" viewBox="0.0 0.0 400.0 385.0" zoomAndPan="magnify" style="fill: rgb(251, 184, 71);" original_string_length="4919"><g id="__id603_s5xx20wwkj"><path d="M352.14,269.97c2.51,2.5,2.52,6.56,0.03,9.06l-50.32,50.38c-2.5,2.51-6.56,2.52-9.06,0.03c-0.26-0.26-0.5-0.54-0.7-0.83 l-14.31-20.02c-2.05-2.88-1.38-6.89,1.5-8.94c2.88-2.05,6.89-1.38,8.94,1.5l9.9,13.86L343.08,270l0,0 C345.57,267.49,349.63,267.48,352.14,269.97z M400,299.71c0,23.51-9.48,44.82-24.81,60.26c-15.33,15.44-36.51,25-59.89,25 c-23.38,0-44.55-9.56-59.89-25c-2.33-2.35-4.51-4.85-6.56-7.45H6.43c-3.55,0-6.43-2.88-6.43-6.43V41.99c0-3.55,2.88-6.43,6.43-6.43 h34.75V6.43C41.18,2.88,44.05,0,47.6,0h32.04c3.55,0,6.43,2.88,6.43,6.43v29.13h192.81V6.43c0-3.55,2.88-6.43,6.43-6.43h32.05 c3.55,0,6.43,2.88,6.43,6.43v29.13h34.75c3.55,0,6.43,2.88,6.43,6.43v54.84c0.01,0.16,0.02,0.31,0.02,0.47s-0.01,0.32-0.02,0.47 v132.92c3.63,2.65,7.06,5.57,10.22,8.76C390.52,254.89,400,276.2,400,299.71z M291.75,12.86v29.13c0,0,0,0,0,0s0,0,0,0v18.53h19.19 V41.99c0,0,0,0,0,0s0,0,0,0V12.86H291.75z M54.03,60.52h19.19V41.99c0,0,0,0,0,0s0,0,0,0V12.86H54.03V60.52z M12.86,48.42v42.45 h339.25V48.42H323.8v18.53c0,3.55-2.88,6.43-6.43,6.43h-32.05c-3.55,0-6.43-2.88-6.43-6.43V48.42H86.08v18.53 c0,3.55-2.88,6.43-6.43,6.43H47.6c-3.55,0-6.43-2.88-6.43-6.43V48.42H12.86z M240.5,339.66c-6.3-11.92-9.89-25.52-9.89-39.95 c0-8.71,1.31-17.12,3.73-25.05c-0.23,0.03-0.46,0.04-0.7,0.04H197.8c-3.55,0-6.43-2.88-6.43-6.43c0-3.55,2.88-6.43,6.43-6.43h35.84 c1.9,0,3.6,0.83,4.78,2.14c4.22-9.17,9.99-17.47,17-24.54c15.33-15.44,36.51-25,59.89-25c13.19,0,25.67,3.04,36.81,8.47V103.73 H12.86v235.93H240.5z M387.14,299.71c0-20.02-8.04-38.13-21.04-51.22c-3.33-3.35-6.99-6.37-10.92-9.01 c-0.11-0.07-0.22-0.14-0.33-0.21c-11.34-7.55-24.93-11.95-39.55-11.95c-19.84,0-37.81,8.09-50.8,21.18 c-13,13.09-21.04,31.2-21.04,51.22c0,15.92,5.09,30.61,13.71,42.55c0.08,0.11,0.16,0.22,0.23,0.33c2.16,2.96,4.53,5.75,7.1,8.34 c12.99,13.08,30.95,21.18,50.8,21.18c19.84,0,37.81-8.09,50.8-21.18C379.1,337.84,387.14,319.73,387.14,299.71z M100.7,139.24H64.86 c-3.55,0-6.43,2.88-6.43,6.43c0,3.55,2.88,6.43,6.43,6.43h35.84c3.55,0,6.43-2.88,6.43-6.43 C107.13,142.11,104.25,139.24,100.7,139.24z M264.27,213.4h35.84c3.55,0,6.43-2.88,6.43-6.43c0-3.55-2.88-6.43-6.43-6.43h-35.84 c-3.55,0-6.43,2.88-6.43,6.43C257.84,210.52,260.72,213.4,264.27,213.4z M140.19,145.66l-10.2,10.21c-2.5,2.51-2.48,6.57,0.03,9.06 c2.51,2.5,6.57,2.48,9.06-0.03l10.16-10.18l10.16,10.18c2.5,2.51,6.56,2.52,9.06,0.03c2.51-2.5,2.52-6.56,0.03-9.06l-10.2-10.21 l10.2-10.21c2.5-2.51,2.48-6.57-0.03-9.06c-2.51-2.5-6.57-2.48-9.06,0.03l-10.16,10.18l-10.16-10.18c-2.5-2.51-6.56-2.52-9.06-0.03 c-2.51,2.5-2.52,6.56-0.03,9.06L140.19,145.66z M196.49,164.94c2.51,2.5,6.57,2.48,9.06-0.03l10.16-10.18l10.16,10.18 c2.5,2.51,6.56,2.52,9.06,0.03c2.51-2.5,2.52-6.56,0.03-9.06l-10.2-10.21l10.2-10.21c2.5-2.51,2.48-6.57-0.03-9.06 c-2.51-2.5-6.57-2.48-9.06,0.03l-10.16,10.18l-10.16-10.18c-2.5-2.51-6.56-2.52-9.06-0.03c-2.51,2.5-2.52,6.56-0.03,9.06l10.2,10.21 l-10.2,10.21C193.97,158.38,193.98,162.44,196.49,164.94z M262.96,164.94c2.51,2.5,6.57,2.48,9.06-0.03l10.16-10.18l10.16,10.18 c2.5,2.51,6.56,2.52,9.06,0.03c2.51-2.5,2.52-6.56,0.03-9.06l-10.2-10.21l10.2-10.21c2.5-2.51,2.48-6.57-0.03-9.06 c-2.51-2.5-6.57-2.48-9.06,0.03l-10.16,10.18l-10.16-10.18c-2.5-2.51-6.56-2.52-9.06-0.03c-2.51,2.5-2.52,6.56-0.03,9.06l10.2,10.21 l-10.2,10.21C260.44,158.38,260.46,162.44,262.96,164.94z M102,187.69c-2.51-2.5-6.57-2.48-9.06,0.03L82.77,197.9l-10.16-10.18 c-2.5-2.51-6.56-2.52-9.06-0.03c-2.51,2.5-2.52,6.56-0.03,9.06l10.2,10.21l-10.2,10.21c-2.5,2.51-2.48,6.57,0.03,9.06 c2.51,2.5,6.57,2.48,9.06-0.03l10.16-10.18l10.16,10.18c2.5,2.51,6.56,2.52,9.06,0.03c2.51-2.5,2.52-6.56,0.03-9.06l-10.2-10.21 l10.2-10.21C104.52,194.25,104.51,190.19,102,187.69z M140.18,206.97l-10.2,10.21c-2.5,2.51-2.48,6.57,0.03,9.06 c2.51,2.5,6.57,2.48,9.06-0.03l10.16-10.18l10.16,10.18c2.5,2.51,6.56,2.52,9.06,0.03c2.51-2.5,2.52-6.56,0.03-9.06l-10.2-10.21 l10.2-10.21c2.5-2.51,2.48-6.57-0.03-9.06c-2.51-2.5-6.57-2.48-9.06,0.03l-10.16,10.18l-10.16-10.18c-2.5-2.51-6.56-2.52-9.06-0.03 c-2.51,2.5-2.52,6.56-0.03,9.06L140.18,206.97z M234.95,187.69c-2.51-2.5-6.57-2.48-9.06,0.03l-10.16,10.18l-10.16-10.18 c-2.5-2.51-6.56-2.52-9.06-0.03c-2.51,2.5-2.52,6.56-0.03,9.06l10.2,10.21l-10.2,10.21c-2.5,2.51-2.48,6.57,0.03,9.06 c2.51,2.5,6.57,2.48,9.06-0.03l10.16-10.18l10.16,10.18c2.5,2.51,6.56,2.52,9.06,0.03c2.51-2.5,2.52-6.56,0.03-9.06l-10.2-10.21 l10.2-10.21C237.47,194.25,237.46,190.19,234.95,187.69z M167.16,261.85h-35.84c-3.55,0-6.43,2.88-6.43,6.43 c0,3.55,2.88,6.43,6.43,6.43h35.84c3.55,0,6.43-2.88,6.43-6.43C173.59,264.72,170.71,261.85,167.16,261.85z M100.69,261.85H64.85 c-3.55,0-6.43,2.88-6.43,6.43c0,3.55,2.88,6.43,6.43,6.43h35.84c3.55,0,6.43-2.88,6.43-6.43 C107.12,264.72,104.24,261.85,100.69,261.85z" style="fill: inherit;"/></g></svg>