<svg xmlns="http://www.w3.org/2000/svg" xmlns:xlink="http://www.w3.org/1999/xlink" data-name="Layer 1" preserveAspectRatio="xMidYMid meet" version="1.0" viewBox="2.0 2.0 44.0 44.0" zoomAndPan="magnify" style="fill: rgb(0, 0, 0);" original_string_length="2087"><g id="__id632_s5xx20wwkj"><path d="M12,29a1,1,0,0,1-1-1V27a1,1,0,0,1,2,0v1A1,1,0,0,1,12,29Z" style="fill: rgb(251, 184, 71);"/></g><g id="__id633_s5xx20wwkj"><path d="M36,16.06a1,1,0,0,1-1-1V5a1,1,0,0,0-1-1H14a1,1,0,0,1,0-2H34a3,3,0,0,1,3,3V15.06A1,1,0,0,1,36,16.06Z" style="fill: rgb(251, 184, 71);"/></g><g id="__id634_s5xx20wwkj"><path d="M28,7H21a1,1,0,0,1,0-2h7a1,1,0,0,1,0,2Z" style="fill: rgb(251, 184, 71);"/></g><g id="__id635_s5xx20wwkj"><path d="M36,10H23a1,1,0,0,1,0-2H36a1,1,0,0,1,0,2Z" style="fill: rgb(251, 184, 71);"/></g><g id="__id636_s5xx20wwkj"><path d="M34,46H20a1,1,0,0,1,0-2H34a1,1,0,0,0,1-1V40H23a1,1,0,0,1,0-2H36a1,1,0,0,1,1,1v4A3,3,0,0,1,34,46Z" style="fill: rgb(251, 184, 71);"/></g><g id="__id637_s5xx20wwkj"><path d="M12,25A10,10,0,1,1,22,15,10,10,0,0,1,12,25ZM12,7a8,8,0,1,0,8,8A8,8,0,0,0,12,7Z" style="fill: rgb(251, 184, 71);"/></g><g id="__id638_s5xx20wwkj"><path d="M37,36a9,9,0,1,1,9-9A9,9,0,0,1,37,36Zm0-16a7,7,0,1,0,7,7A7,7,0,0,0,37,20Z" style="fill: rgb(251, 184, 71);"/></g><g id="__id639_s5xx20wwkj"><path d="M13,46a8,8,0,1,1,8-8A8,8,0,0,1,13,46Zm0-14a6,6,0,1,0,6,6A6,6,0,0,0,13,32Z" style="fill: rgb(251, 184, 71);"/></g><g id="__id640_s5xx20wwkj"><path d="M13,42.77a1,1,0,0,1-.71-.29L9.67,39.85C7.92,38.1,8,36.16,9,35.16s2.44-1.06,4,0a3.47,3.47,0,0,1,2.89-.69,2.43,2.43,0,0,1,1.74,1.74,3.81,3.81,0,0,1-1.3,3.6l-2.63,2.63A1,1,0,0,1,13,42.77Zm-2.17-6.33a.56.56,0,0,0-.4.13c-.26.25-.22,1,.65,1.87L13,40.36l1.92-1.92c.71-.72.87-1.33.77-1.67a.41.41,0,0,0-.32-.32c-.34-.09-1,.06-1.67.77a1,1,0,0,1-1.41,0A2.22,2.22,0,0,0,10.84,36.44Z" style="fill: rgb(251, 184, 71);"/></g><g id="__id641_s5xx20wwkj"><path d="M9,19.66a1,1,0,0,1-1-1V11a1,1,0,0,1,.5-.87,1,1,0,0,1,1,0l6.67,3.85a1,1,0,0,1,.5.87,1,1,0,0,1-.5.86L9.5,19.52A1,1,0,0,1,9,19.66Zm1-7v4.23l3.67-2.11Z" style="fill: rgb(251, 184, 71);"/></g><g id="__id642_s5xx20wwkj"><path d="M38,32H36a3,3,0,0,1-3-3V24.5a2.5,2.5,0,0,1,5,0V25a3,3,0,0,1,3,3v1A3,3,0,0,1,38,32Zm-2.5-8a.51.51,0,0,0-.5.5V29a1,1,0,0,0,1,1h2a1,1,0,0,0,1-1V28a1,1,0,0,0-1-1H37a1,1,0,0,1-1-1V24.5A.51.51,0,0,0,35.5,24Z" style="fill: rgb(251, 184, 71);"/></g></svg>